<?xml version="1.0" encoding="utf-8"?>
<!-- Generator: Adobe Illustrator 26.1.0, SVG Export Plug-In . SVG Version: 6.00 Build 0)  -->
<svg version="1.1" id="Layer_1" xmlns="http://www.w3.org/2000/svg" xmlns:xlink="http://www.w3.org/1999/xlink" x="0px" y="0px"
	 viewBox="0 0 50 50" style="enable-background:new 0 0 50 50;" xml:space="preserve">
<style type="text/css">
	.st0{fill:#FF00CC;}
</style>
<g>
	<path class="st0" d="M50,50c-16.7,0-33.3,0-50,0C0,33.3,0,16.7,0,0c16.7,0,33.3,0,50,0C50,16.7,50,33.3,50,50z M39.8,26.7
		c0-0.3,0.1-0.5-0.1-0.8c-0.1,0.1-0.1,0.1-0.1,0.2c-0.7-2.6-1.8-5-3.8-6.9c-1.8-1.7-3.9-2.7-6.2-3.4c0.1-0.1,0.2-0.1,0.1-0.2
		c-0.2,0-0.5,0-0.7,0.1c-1.8-0.3-3.6-0.3-5.4,0c-0.2-0.1-0.5-0.3-0.8-0.1c0.1,0.1,0.1,0.1,0.2,0.1c-0.2,0.1-0.3,0.1-0.5,0.2
		c-3,0.9-5.4,2.5-7.3,5c-1.3,1.8-2,3.8-2.5,5.9c-0.1-0.1,0-0.3-0.2-0.3c0,1.4,0,2.9,0,4.6c0.1-0.4,0.1-0.5,0.2-0.6
		c0.1,0.3,0.2,0.7,0.3,1c1.6,1,3.3,1.1,5,1.5c-0.2,0.1-0.4-0.1-0.6,0.2c0.5,0,1,0.1,1.4-0.2c3.4,0.2,6.8,0.1,10.2-0.4
		c0.4,0.2,0.8,0.2,1.1,0c-0.1,0-0.2-0.1-0.3-0.1c1.4-0.2,2.7-0.5,4-1c1.8-0.7,3.5-1.5,5.1-2.6c0.4-0.2,0.7-0.6,0.7-1
		C40.1,27.6,40.1,27.1,39.8,26.7z M39.1,16.5c-0.6,0-1.1-0.1-1.7-0.3c-0.6-0.6-1.4-1-2.2-1.5c-0.3,0.4-0.6,0.8-1,1.3
		c2.4,1.8,4.5,3.8,5.8,6.6c0.6-0.3,1.1-0.4,1.5-0.8c-0.5-1.2-1.2-2.3-1.9-3.3c0.4-1.1,1.6-0.6,2.2-1.3c0.2-1.3,0.1-1.9-0.7-2.1
		c-0.9-0.3-1.6,0.1-1.9,1.1C39.3,16.4,39.2,16.4,39.1,16.5z M10,19.1c-0.4-0.5-0.8-0.6-1.3-0.1c-0.7,0.5-1.1,1-0.8,1.9
		c0.3,0.8,0.9,0.8,1.6,0.8c0.5,0,0.8,0.2,1.2,0.6c-0.5,1-0.7,2.2-1.1,3.2c0-0.1-0.1-0.2-0.1-0.5c-0.2,0.4-0.1,0.6,0.1,0.9
		c0.5,0.3,1.1,0.3,1.6,0.4c0.1-0.3,0.2-0.5,0.3-0.7c0.1,0.1,0.1,0.2,0.2,0.1c0.1-0.3,0-0.5-0.1-0.7c0.6-2.3,1.7-4.3,3.4-6
		c0.2-0.1,0.4-0.1,0.4-0.3c-0.1-0.1-0.1-0.2-0.2-0.3c-0.4-0.4-0.8-1.2-1.5-0.8c-0.9,1-1.5,2-2.1,2.9C10.6,20.4,10.5,19.4,10,19.1z
		 M28.4,12.2c-1.1,0-2.2,0-3.3,0c-0.1-0.6-0.1-1-0.2-1.3c0.7-0.8,0.9-1.6,0.1-2.4c-0.8-0.8-1.7-0.6-2.5-0.1
		c-0.6,1.2-0.3,2.1,0.6,2.8c0,0.4,0,0.7,0,1.1c-1.5,0.5-3.1,0.7-4.5,1.6c0.3,0.6,0.5,1.1,0.7,1.5c1-0.6,2.1-0.9,3.1-1.1
		c0.4,0.2,0.7,0.2,1.1,0c-0.2,0-0.3-0.1-0.5-0.1c1.9-0.5,3.8-0.5,5.7,0c-0.1,0-0.3,0.1-0.6,0.2c0.6,0.1,0.9,0.1,1.2-0.2
		c0-0.5,0.4-1,0.2-1.6c-0.2-0.1-0.5-0.2-0.7-0.3c0.1-0.1,0.1-0.1,0.2-0.2C28.9,11.9,28.7,12,28.4,12.2z M28,40.7
		c0.2,0.1,0.5,0.3,0.8,0.1c-0.1-0.1-0.1-0.1-0.2-0.1c3.2-0.9,6.2-2.2,8.3-5c1-1.4,1.9-2.9,2.4-4.8c-3,1.7-6,2.8-9.2,3.4
		c-0.4-0.2-0.8-0.2-1.1,0c0.1,0,0.2,0.1,0.3,0.1c-0.3,0.2-0.6,0.2-1,0.2c-0.3-0.2-0.6-0.3-1.1-0.1c0.2,0.1,0.4,0.1,0.5,0.1
		c-3.8,0.6-7.7,0.6-11.5-0.2c0.1,0,0.3-0.1,0.6-0.2c-0.6-0.1-0.9-0.1-1.2,0.1c-0.5,0-0.9-0.4-1.4-0.2c0.8,1.3,1.7,2.4,2.7,3.4
		c2,1.8,4.3,2.8,6.9,3.3C25.1,41,26.6,40.9,28,40.7z M23.4,7.6c0.4,0.2,0.6,0.3,0.7,0C24,7.6,23.8,7.6,23.4,7.6z"/>
	<path class="st0" d="M12.7,26.9c0,1.2,0,2.4,0,3.7c0,0.1-0.1,0.2-0.2,0.6c0-1.7,0-3.1,0-4.6C12.7,26.6,12.6,26.8,12.7,26.9z"/>
	<path class="st0" d="M39.1,16.5c-0.2,0.3-0.4,0.5-1,0.6c-0.2-0.2-0.4-0.6-0.7-0.9C38,16.4,38.6,16.5,39.1,16.5z"/>
	<path class="st0" d="M10,19.1c-0.4,0-0.9-0.1-1.3-0.1C9.2,18.5,9.6,18.6,10,19.1z"/>
	<path class="st0" d="M39.7,27.4c-0.2-0.4-0.2-0.9-0.2-1.3c0-0.1,0.1-0.1,0.1-0.2c0.2,0.2,0.1,0.5,0.1,0.8
		C39.8,26.9,39.8,27.2,39.7,27.4z"/>
	<path class="st0" d="M18.1,33.1c0.3,0,0.6,0,0.8,0.1c-0.4,0.3-0.9,0.2-1.4,0.2C17.6,33,17.9,33.2,18.1,33.1z"/>
	<path class="st0" d="M22.7,14.3c0.2,0,0.4-0.1,0.6-0.1c0.2,0,0.3,0.1,0.5,0.1C23.4,14.5,23,14.5,22.7,14.3z"/>
	<path class="st0" d="M29.1,32.7c0.3,0,0.5-0.1,0.8-0.1c0.1,0,0.2,0.1,0.3,0.1C29.9,32.9,29.5,32.9,29.1,32.7z"/>
	<path class="st0" d="M30,34.2c-0.3,0-0.5,0.1-0.8,0.1c-0.1,0-0.2-0.1-0.3-0.1C29.2,34,29.6,33.9,30,34.2z"/>
	<path class="st0" d="M29,14.2c0.2,0,0.4,0,0.6,0c-0.3,0.3-0.6,0.3-1.2,0.2C28.7,14.3,28.8,14.2,29,14.2z"/>
	<path class="st0" d="M39.7,27.4c0-0.2,0-0.5,0-0.7c0.3,0.4,0.3,0.9,0,1.3C39.8,27.8,39.8,27.6,39.7,27.4z"/>
	<path class="st0" d="M16.2,34.3c-0.2,0-0.4,0-0.6-0.1c0.3-0.2,0.6-0.2,1.2-0.1C16.4,34.2,16.3,34.2,16.2,34.3z"/>
	<path class="st0" d="M28.2,34.4c-0.2,0-0.4,0-0.6,0.1c-0.1,0-0.2-0.1-0.5-0.1C27.6,34.2,27.9,34.2,28.2,34.4z"/>
	<path class="st0" d="M9.6,25.4c0,0.1,0,0.3,0,0.4c-0.2-0.2-0.3-0.5-0.1-0.9C9.5,25.1,9.5,25.3,9.6,25.4z"/>
	<path class="st0" d="M11.5,25.5c0-0.2,0.1-0.4,0.1-0.6c0.1,0.2,0.2,0.5,0.1,0.7C11.6,25.7,11.6,25.5,11.5,25.5z"/>
	<path class="st0" d="M23.4,7.6c0.5,0,0.6,0,0.7,0C24,7.8,23.8,7.8,23.4,7.6z"/>
	<path class="st0" d="M29,12.3c-0.2,0-0.4,0-0.6-0.1c0.2-0.2,0.5-0.3,0.8-0.1C29.2,12.2,29.1,12.2,29,12.3z"/>
	<path class="st0" d="M23.5,15.7c-0.2,0-0.4,0.1-0.6,0.1c-0.1,0-0.1-0.1-0.2-0.1C23.1,15.5,23.3,15.6,23.5,15.7z"/>
	<path class="st0" d="M29.5,15.8c-0.2,0-0.4-0.1-0.6-0.1c0.2-0.1,0.5-0.2,0.7-0.1C29.7,15.7,29.6,15.8,29.5,15.8z"/>
	<path class="st0" d="M15,18.9c0.1-0.2,0.1-0.4,0.2-0.6c0.1,0.1,0.2,0.2,0.2,0.3C15.3,18.8,15.1,18.8,15,18.9z"/>
	<path class="st0" d="M28,40.7c0.2,0,0.4,0,0.6-0.1c0.1,0,0.1,0.1,0.2,0.1C28.5,41,28.3,40.8,28,40.7z"/>
	<path class="st0" d="M20.2,29.7c-1.6-0.5-2.6-1.6-2.9-3.3c0.2-0.4,0.2-0.7,0-1.1c0.5-2.6,2.7-4,5.1-3.4c1.4,0.4,2.7,1.9,2.9,3.4
		c-0.3,0.4-0.3,0.9,0,1.3c-0.3,1.6-1.3,2.7-2.9,3.1C21.7,29.4,21,29.5,20.2,29.7z"/>
	<path class="st0" d="M34.5,26.3c-0.3,0.8-0.9,1.1-1.6,1.4c-0.7-0.3-1.3-0.2-2,0c-1.8-1-2.4-2.4-1.7-4c0.7-1.5,2.3-2.1,3.8-1.5
		c0.7,0.3,1.2,0.7,1.5,1.4C34.5,24.5,34.5,25.4,34.5,26.3z"/>
	<path class="st0" d="M34.5,26.3c0-0.9,0-1.8,0-2.8C35,24.5,35.1,25.4,34.5,26.3z"/>
	<path class="st0" d="M20.2,29.7c0.7-0.3,1.5-0.3,2.2,0C21.7,30.1,21,30,20.2,29.7z"/>
	<path class="st0" d="M30.9,27.7c0.7-0.2,1.3-0.3,2,0C32.2,28,31.6,28,30.9,27.7z"/>
	<path class="st0" d="M25.3,26.7c-0.3-0.4-0.3-0.9,0-1.3C25.5,25.8,25.5,26.2,25.3,26.7z"/>
	<path class="st0" d="M17.4,25.3c0.2,0.4,0.2,0.7,0,1.1C17.4,26.1,17.4,25.7,17.4,25.3z"/>
</g>
</svg>
